<?xml version="1.0" encoding="utf-8"?>
<!-- Generator: Adobe Illustrator 15.1.0, SVG Export Plug-In . SVG Version: 6.00 Build 0)  -->
<!DOCTYPE svg PUBLIC "-//W3C//DTD SVG 1.1//EN" "http://www.w3.org/Graphics/SVG/1.1/DTD/svg11.dtd">
<svg version="1.1" id="Layer_1" xmlns="http://www.w3.org/2000/svg" xmlns:xlink="http://www.w3.org/1999/xlink" x="0px" y="0px"
	 width="400px" height="400px" viewBox="0 0 400 400" enable-background="new 0 0 400 400" xml:space="preserve">
<path fill="#353535" d="M284.931,131.138c-7.544,68.862-39.518,118.948-88.262,118.948c-48.747,0-84.017-50.086-88.263-118.948
	c-4.043-65.569,30.816-118.833,88.263-118.949C250.333,12.082,292.085,65.835,284.931,131.138z"/>
<path fill="#353535" d="M390.624,366c1.759,0,3.518,0,5.272,0c1.085-9,1.406-16.742,1.406-22.679
	c0-57.447-88.375-103.983-197.394-103.983c-109.016,0-197.392,46.52-197.392,103.968C2.517,349.929,2.515,357,3.3,366
	c1.269,0,2.648,0,3.507,0c-0.859,0-2.238,0-3.507,0c2.297,23,389.757,22,392.597,0C394.142,366,392.383,366,390.624,366z"/>
<path fill="#353535" d="M94.889,312.347"/>
</svg>
